<?xml version="1.0" encoding="UTF-8" standalone="no"?>
<svg
   width="600mm"
   height="600mm"
   viewBox="0 0 600 600"
   version="1.1"
   id="svg1"
   xml:space="preserve"
   xmlns="http://www.w3.org/2000/svg"
   xmlns:svg="http://www.w3.org/2000/svg"><defs
     id="defs1" /><g
     id="layer1"><rect
       style="display:inline;fill:#f4f1e2;fill-opacity:1;stroke:none;stroke-width:2.7168"
       id="rect10"
       width="600"
       height="600"
       x="-3.5527137e-15"
       y="0" /><path
       style="fill:#af93ab;fill-opacity:1;stroke:none;stroke-width:2.57487"
       d="m 160,155 2.1e-4,237.35012 L 229,306 V 155 Z"
       id="path4" /><path
       style="fill:#a67e93;fill-opacity:1;stroke:none;stroke-width:2.57487"
       d="m 229,245 v 81 l 74,85 V 245 Z"
       id="path5" /><path
       style="fill:#6198b2;fill-opacity:1;stroke:none;stroke-width:2.57487"
       d="M 229,306 V 515 H 57 Z"
       id="path6" /><path
       style="display:inline;fill:#6aa5af;fill-opacity:1;stroke:none;stroke-width:2.57487"
       d="m 303,355 v 56 l 69,-87 -1,-55 z"
       id="path7" /><path
       style="display:inline;fill:#5481a1;fill-opacity:1;stroke:none;stroke-width:2.57487"
       d="M 439,125.05295 370,125 l 1,390 h 68 z"
       id="path8" /><path
       style="display:inline;fill:#6897ae;fill-opacity:1;stroke:none;stroke-width:2.57487"
       d="M 439,391.00142 541,515 H 439 Z"
       id="path9" /><path
       style="display:inline;fill:#a87d94;fill-opacity:1;stroke:none;stroke-width:2.57487"
       d="M 56.99979,57 H 160 l 2.1e-4,458 H 56.99979 Z"
       id="path3" /><path
       style="fill:#ee907f;fill-opacity:1;stroke:none;stroke-width:2.57487"
       d="M 57,57 H 194 L 303,181 V 355 Z"
       id="path1" /><path
       style="display:inline;fill:#78b3b5;fill-opacity:1;stroke:none;stroke-width:2.57487"
       d="M 439,391.00142 V 57 h 102 v 458 z"
       id="path10" /><path
       style="fill:#f7aa59;fill-opacity:1;stroke:none;stroke-width:2.57487"
       d="M 303,181 V 355 L 541,57 H 406.40881 Z"
       id="path2" /></g></svg>
